<?xml version="1.0" encoding="utf-8"?>
<!-- Clockwise icon by Arthur Shlain from Usefulicons.com -->
<svg xmlns="http://www.w3.org/2000/svg" xmlns:xlink="http://www.w3.org/1999/xlink" xml:space="preserve" version="1.1" x="0px" y="0px" viewBox="0 0 100 100" width="400px" height="400px"><g style="fill: #ffffff"><path d="M50,5C62.02,5,73.32,9.681,81.838,18.199L85,21.427L85,12.5C85,11.119,86.119,10,87.5,10S90,11.119,90,12.5L90,27.5C90,28.881,88.881,30,87.5,30L72.5,30C71.119,30,70,28.881,70,27.5S71.119,25,72.5,25L81.501,25L78.285,21.716C70.729,14.161,60.684,10,50,10C27.944,10,10,27.944,10,50C10,51.381,8.881,52.5,7.5,52.5S5,51.381,5,50C5,25.187,25.187,5,50,5Z" stroke="none"></path><path d="M12.5,70L27.5,70C28.881,70,30,71.119,30,72.5S28.881,75,27.5,75L18.499,75L21.715,78.284C29.271,85.839,39.316,90,50,90C72.056,90,90,72.056,90,50C90,48.619,91.119,47.5,92.5,47.5S95,48.619,95,50C95,74.813,74.813,95,50,95C37.98,95,26.68,90.319,18.162,81.801L15,78.573L15,87.5C15,88.881,13.881,90,12.5,90S10,88.881,10,87.5L10,72.5C10,71.119,11.119,70,12.5,70Z" stroke="none"></path></g></svg>