<?xml version="1.0" encoding="utf-8"?>
<!-- Flip Horizontal icon by Arthur Shlain from Usefulicons.com -->
<svg xmlns="http://www.w3.org/2000/svg" xmlns:xlink="http://www.w3.org/1999/xlink" xml:space="preserve" version="1.1" x="0px" y="0px" viewBox="0 0 100 100" width="400px" height="400px"><g style="fill: #ffffff"><path d="M47.5,55L52.5,55L52.5,60L47.5,60L47.5,55Z" stroke="none"></path><path d="M47.5,45L52.5,45L52.5,50L47.5,50L47.5,45Z" stroke="none"></path><path d="M47.5,35L52.5,35L52.5,40L47.5,40L47.5,35Z" stroke="none"></path><path d="M47.5,25L52.5,25L52.5,30L47.5,30L47.5,25Z" stroke="none"></path><path d="M47.5,65L52.5,65L52.5,70L47.5,70L47.5,65Z" stroke="none"></path><path d="M47.5,75L52.5,75L52.5,80L47.5,80L47.5,75Z" stroke="none"></path><path d="M47.5,85L52.5,85L52.5,90L47.5,90L47.5,85Z" stroke="none"></path><path d="M10,87.5L40,57.5L10,27.5L10,87.5ZM17.5,45.607L29.393,57.5L17.5,69.393L17.5,45.607Z" stroke="none"></path><path d="M71.731,25L65,25L65,30L80,30L80,15L75,15L75,21.211C60.421,7.96,37.774,8.371,23.698,22.448L27.233,25.983C39.45,13.77,59.114,13.445,71.731,25Z" stroke="none"></path><path d="M90,87.5L90,27.5L60,57.5L90,87.5ZM85,75.429L67.071,57.5L85,39.571L85,75.429Z" stroke="none"></path></g></svg>