<?xml version="1.0" encoding="utf-8"?>
<!-- Flip Vertical icon by Arthur Shlain from Usefulicons.com -->
<svg xmlns="http://www.w3.org/2000/svg" xmlns:xlink="http://www.w3.org/1999/xlink" xml:space="preserve" version="1.1" x="0px" y="0px" viewBox="0 0 100 100" width="400px" height="400px"><g style="fill: #ffffff"><path d="M40.304,50L40.303,50" stroke="none"></path><path d="M45.304,52.5L45.304,47.5L40.304,47.5L40.304,50L40.304,52.5Z" stroke="none"></path><path d="M50.304,50L50.303,50" stroke="none"></path><path d="M55.304,52.5L55.304,47.5L50.304,47.5L50.304,50L50.304,52.5Z" stroke="none"></path><path d="M60.304,50L60.303,50" stroke="none"></path><path d="M65.304,52.5L65.304,47.5L60.304,47.5L60.304,50L60.304,52.5Z" stroke="none"></path><path d="M70.304,50L70.303,50" stroke="none"></path><path d="M75.304,52.5L75.304,47.5L70.304,47.5L70.304,50L70.304,52.5Z" stroke="none"></path><path d="M30.304,50L30.303,50" stroke="none"></path><path d="M35.304,52.5L35.304,47.5L30.304,47.5L30.304,50L30.304,52.5Z" stroke="none"></path><path d="M20.304,50L20.303,50" stroke="none"></path><path d="M25.304,52.5L25.304,47.5L20.304,47.5L20.304,50L20.304,52.5Z" stroke="none"></path><path d="M10.304,50L10.303,50" stroke="none"></path><path d="M15.304,52.5L15.304,47.5L10.304,47.5L10.304,50L10.304,52.5Z" stroke="none"></path><path d="M72.803,10L12.803,10L42.803,40L72.803,10ZM54.697,17.5L42.803,29.393L30.91,17.5L54.697,17.5Z" stroke="none"></path><path d="M88.75,50C88.75,40.064,84.881,30.724,77.855,23.698L74.32,27.233C80.401,33.315,83.75,41.4,83.75,50C83.75,58.122,80.758,65.783,75.304,71.732L75.304,65L70.304,65L70.304,80L85.304,80L85.304,75L79.096,75C85.334,68.143,88.75,59.334,88.75,50Z" stroke="none"></path><path d="M12.803,90L72.803,90L42.803,60L12.803,90ZM24.874,85L42.803,67.071L60.732,85L24.874,85Z" stroke="none"></path></g></svg>